<svg xmlns="http://www.w3.org/2000/svg" viewBox="0 0 800 600" role="img" aria-label="断肠草（剧毒植物）示意图">
  <defs>
    <linearGradient id="bg" x1="0" x2="0" y1="0" y2="1">
      <stop offset="0%" stop-color="#fff7ed"/>
      <stop offset="100%" stop-color="#fee2e2"/>
    </linearGradient>
    <linearGradient id="leaf" x1="0" x2="1" y1="0" y2="1">
      <stop offset="0%" stop-color="#22c55e"/>
      <stop offset="100%" stop-color="#15803d"/>
    </linearGradient>
    <filter id="shadow" x="-20%" y="-20%" width="140%" height="140%">
      <feDropShadow dx="0" dy="16" stdDeviation="16" flood-color="#7f1d1d" flood-opacity="0.25"/>
    </filter>
  </defs>
  <rect width="800" height="600" fill="url(#bg)"/>
  <g filter="url(#shadow)" transform="translate(0,0)">
    <path d="M395 520c-10-150 10-260 70-380" stroke="#166534" stroke-width="18" stroke-linecap="round"/>
    <path d="M410 510c-40-120-110-210-200-280" stroke="#14532d" stroke-width="10" stroke-linecap="round" opacity="0.7"/>
    <path d="M465 505c60-120 150-220 265-290" stroke="#14532d" stroke-width="10" stroke-linecap="round" opacity="0.65"/>
    <g fill="url(#leaf)">
      <path d="M210 220c80-70 160-75 240-35-55 80-135 115-240 35Z"/>
      <path d="M520 230c-80-70-160-75-240-35 55 80 135 115 240 35Z"/>
      <path d="M240 320c70-50 135-55 200-25-45 70-110 95-200 25Z"/>
      <path d="M560 320c-70-50-135-55-200-25 45 70 110 95 200 25Z"/>
    </g>
    <g>
      <g transform="translate(475,155)">
        <circle cx="0" cy="0" r="42" fill="#facc15"/>
        <circle cx="-28" cy="10" r="34" fill="#fde047"/>
        <circle cx="28" cy="10" r="34" fill="#fde047"/>
        <circle cx="0" cy="28" r="34" fill="#fde047"/>
        <circle cx="0" cy="6" r="12" fill="#7c2d12"/>
      </g>
      <g transform="translate(310,170) scale(0.9)">
        <circle cx="0" cy="0" r="42" fill="#facc15"/>
        <circle cx="-28" cy="10" r="34" fill="#fde047"/>
        <circle cx="28" cy="10" r="34" fill="#fde047"/>
        <circle cx="0" cy="28" r="34" fill="#fde047"/>
        <circle cx="0" cy="6" r="12" fill="#7c2d12"/>
      </g>
    </g>
  </g>
  <g opacity="0.85">
    <path d="M60 70h240v72H60z" fill="#ef4444" opacity="0.12"/>
    <path d="M70 90h220" stroke="#ef4444" stroke-width="10" stroke-linecap="round" opacity="0.4"/>
  </g>
</svg>
