<svg xmlns="http://www.w3.org/2000/svg" viewBox="0 0 800 800" role="img" aria-label="鼠曲草叶面白毛特写（示意图）">
  <defs>
    <radialGradient id="bg" cx="50%" cy="45%" r="70%">
      <stop offset="0%" stop-color="#334155"/>
      <stop offset="100%" stop-color="#0f172a"/>
    </radialGradient>
    <linearGradient id="leaf" x1="0" x2="1" y1="0" y2="1">
      <stop offset="0%" stop-color="#34d399"/>
      <stop offset="100%" stop-color="#16a34a"/>
    </linearGradient>
    <filter id="glow" x="-30%" y="-30%" width="160%" height="160%">
      <feDropShadow dx="0" dy="0" stdDeviation="14" flood-color="#34d399" flood-opacity="0.35"/>
    </filter>
  </defs>
  <rect width="800" height="800" fill="url(#bg)"/>
  <g transform="translate(0,0)" filter="url(#glow)">
    <path d="M170 470c80-210 240-340 460-360 10 240-120 420-350 520-70 30-130 20-170-20-40-40-50-90 60-140Z"
          fill="url(#leaf)"/>
    <path d="M255 462c95-145 210-230 350-270" fill="none" stroke="#064e3b" stroke-width="14" opacity="0.35" stroke-linecap="round"/>
    <path d="M255 510c160-120 280-210 430-270" fill="none" stroke="#065f46" stroke-width="12" opacity="0.25" stroke-linecap="round"/>
  </g>
  <g opacity="0.75">
    <g stroke="#f8fafc" stroke-width="6" stroke-linecap="round">
      <path d="M250 360c40 20 70 50 90 90"/>
      <path d="M320 330c50 25 85 60 105 105"/>
      <path d="M390 300c55 30 92 70 112 120"/>
      <path d="M470 280c55 30 92 70 112 120"/>
      <path d="M550 275c50 28 82 64 98 108"/>
      <path d="M290 450c50 20 86 55 110 100"/>
      <path d="M360 430c60 22 100 60 125 112"/>
      <path d="M440 410c65 22 108 62 135 120"/>
    </g>
  </g>
</svg>
