<svg xmlns="http://www.w3.org/2000/svg" viewBox="0 0 800 600" role="img" aria-label="青团（鼠壳粿）示意图">
  <defs>
    <radialGradient id="g" cx="35%" cy="30%" r="70%">
      <stop offset="0%" stop-color="#bbf7d0"/>
      <stop offset="55%" stop-color="#34d399"/>
      <stop offset="100%" stop-color="#059669"/>
    </radialGradient>
    <filter id="shadow" x="-20%" y="-20%" width="140%" height="140%">
      <feDropShadow dx="0" dy="18" stdDeviation="18" flood-color="#064e3b" flood-opacity="0.35"/>
    </filter>
  </defs>
  <rect width="800" height="600" fill="#fff1f2"/>
  <g filter="url(#shadow)">
    <ellipse cx="400" cy="420" rx="240" ry="70" fill="#000" opacity="0.12"/>
    <circle cx="400" cy="300" r="210" fill="url(#g)"/>
    <path d="M250 320c40 120 260 140 300 0" fill="none" stroke="#d1fae5" stroke-width="26" opacity="0.7" stroke-linecap="round"/>
    <path d="M290 230c40-70 190-80 240 0" fill="none" stroke="#a7f3d0" stroke-width="20" opacity="0.65" stroke-linecap="round"/>
    <circle cx="330" cy="235" r="18" fill="#ecfeff" opacity="0.55"/>
    <circle cx="455" cy="210" r="14" fill="#ecfeff" opacity="0.35"/>
  </g>
  <g opacity="0.85">
    <path d="M190 470c40-90 120-130 220-150-40 80-110 150-220 150Z" fill="#10b981" opacity="0.25"/>
    <path d="M610 470c-40-90-120-130-220-150 40 80 110 150 220 150Z" fill="#10b981" opacity="0.2"/>
  </g>
</svg>
